<?xml version="1.0" encoding="utf-8"?>
<!-- Generator: Adobe Illustrator 26.4.1, SVG Export Plug-In . SVG Version: 6.00 Build 0)  -->
<svg version="1.1" id="圖層_1" xmlns="http://www.w3.org/2000/svg" xmlns:xlink="http://www.w3.org/1999/xlink" x="0px" y="0px"
	 viewBox="0 0 866 173.9" style="enable-background:new 0 0 866 173.9;" xml:space="preserve">
<style type="text/css">
	.st0{enable-background:new    ;}
	.st1{fill:#79DA08;}
	.st2{fill:none;stroke:#79DA08;stroke-width:12;}
</style>
<g class="st0">
	<path class="st1" d="M433,110.3V51.9h47v9.9h-34.2v12.9h31.9v9.8h-31.9v15.9h35.5v9.8L433,110.3L433,110.3z"/>
	<path class="st1" d="M501.1,80.9l-11-1.8c1.2-4.1,3.4-7.1,6.4-9.1s7.5-2.9,13.5-2.9c5.4,0,9.5,0.6,12.1,1.8
		c2.7,1.2,4.5,2.7,5.6,4.5s1.6,5.2,1.6,10l-0.1,13.1c0,3.7,0.2,6.5,0.6,8.2c0.4,1.8,1.1,3.7,2.2,5.7h-12c-0.3-0.7-0.7-1.8-1.2-3.3
		c-0.2-0.7-0.3-1.1-0.4-1.3c-2.1,1.9-4.3,3.3-6.7,4.2c-2.4,0.9-4.9,1.4-7.6,1.4c-4.7,0-8.5-1.2-11.2-3.5c-2.7-2.4-4.1-5.3-4.1-9
		c0-2.4,0.6-4.5,1.9-6.4c1.2-1.9,3-3.3,5.2-4.3s5.5-1.9,9.7-2.6c5.7-1,9.6-1.9,11.8-2.7v-1.1c0-2.2-0.6-3.7-1.7-4.6
		c-1.2-0.9-3.3-1.4-6.5-1.4c-2.2,0-3.9,0.4-5.1,1.2C502.9,77.6,501.9,78.9,501.1,80.9z M517.4,90c-1.6,0.5-4,1-7.4,1.7
		s-5.6,1.3-6.6,2c-1.6,1-2.4,2.3-2.4,3.9s0.6,2.9,1.9,4.1c1.3,1.1,2.9,1.7,4.8,1.7c2.2,0,4.3-0.7,6.3-2c1.5-1,2.4-2.2,2.9-3.7
		c0.3-1,0.5-2.8,0.5-5.5V90z"/>
	<path class="st1" d="M537.1,98.2l12.2-1.7c0.5,2.2,1.6,3.8,3.2,5c1.6,1.1,3.8,1.7,6.7,1.7c3.1,0,5.5-0.5,7.1-1.6
		c1.1-0.7,1.6-1.7,1.6-3c0-0.8-0.3-1.6-0.9-2.1c-0.6-0.5-2-1-4.1-1.5c-9.8-2-16-3.8-18.7-5.5c-3.6-2.3-5.5-5.5-5.5-9.5
		c0-3.7,1.6-6.7,4.7-9.2c3.1-2.5,8-3.7,14.6-3.7c6.3,0,11,0.9,14,2.8c3.1,1.9,5.2,4.7,6.3,8.4l-11.5,2c-0.5-1.6-1.4-2.9-2.8-3.8
		s-3.3-1.3-5.9-1.3c-3.2,0-5.5,0.4-6.9,1.2c-0.9,0.6-1.4,1.3-1.4,2.3c0,0.8,0.4,1.5,1.2,2c1.1,0.7,4.9,1.8,11.4,3.1
		c6.5,1.4,11,3,13.6,5c2.5,2,3.8,4.8,3.8,8.3c0,3.9-1.8,7.2-5.3,10s-8.7,4.2-15.6,4.2c-6.3,0-11.2-1.2-14.9-3.5
		C540.6,105.4,538.2,102.2,537.1,98.2z"/>
	<path class="st1" d="M584.9,68h12.9l11,30l10.7-30h12.6l-16.2,40.7l-2.9,7.4c-1.1,2.5-2.1,4.4-3.1,5.7s-2.1,2.4-3.3,3.2
		c-1.3,0.8-2.8,1.4-4.6,1.9s-3.9,0.7-6.2,0.7s-4.6-0.2-6.9-0.7l-1.1-8.8c1.9,0.3,3.6,0.5,5.2,0.5c2.8,0,4.9-0.8,6.3-2.3
		c1.4-1.5,2.4-3.5,3.1-5.8L584.9,68z"/>
	<path class="st1" d="M639.9,110.3V51.9h12.2v58.4H639.9z"/>
	<path class="st1" d="M664.6,62.3V51.9h12.2v10.4C676.8,62.3,664.6,62.3,664.6,62.3z M664.6,110.3V68h12.2v42.3H664.6z"/>
	<path class="st1" d="M731,110.3h-12.2V88.7c0-4.6-0.3-7.5-0.8-8.9c-0.5-1.3-1.4-2.4-2.5-3.1c-1.2-0.7-2.6-1.1-4.2-1.1
		c-2.1,0-4,0.5-5.7,1.6s-2.8,2.5-3.4,4.2c-0.6,1.8-0.9,5-0.9,9.7v19.2h-12.2V68h11.3v6.2c4-4.8,9.1-7.2,15.1-7.2
		c2.7,0,5.1,0.4,7.4,1.3c2.2,0.9,3.9,2,5,3.4s1.9,2.9,2.4,4.7s0.7,4.3,0.7,7.5L731,110.3L731,110.3z"/>
	<path class="st1" d="M742.9,110.3V51.9h12.2v31L769.3,68h15l-15.7,15.5l16.8,26.8h-13.1l-11.6-19l-5.7,5.5v13.5H742.9z"/>
</g>
<g>
	<g class="st0">
		<path class="st1" d="M132.8,70.4h-3.3c-0.8-2.6-2.3-5.3-4.3-8c-2-2.7-4.1-4.3-6.1-4.8c-0.9-0.2-2.1-0.4-3.6-0.4s-2.8-0.1-3.8-0.1
			h-8.9v26.7h6.3c1.6,0,3-0.2,4.3-0.6s2.5-1.2,3.5-2.4c0.7-0.7,1.3-2.1,2-4s1.1-3.5,1.3-4.9h3.3v28.9h-3.3c-0.2-1.4-0.6-3.1-1.3-5.2
			c-0.7-2.1-1.4-3.5-2-4.3c-0.9-1.2-2.1-2-3.4-2.4s-2.8-0.7-4.5-0.7h-6.3v20c0,2.1,0.1,3.7,0.4,5c0.3,1.2,0.8,2.2,1.5,2.8
			c0.7,0.6,1.7,1,3,1.2s3,0.3,5.1,0.3c1,0,2.2,0,3.6,0s2.6-0.1,3.7-0.3c1.2-0.2,2.3-0.4,3.4-0.7c1-0.3,1.8-0.8,2.4-1.4
			c1.4-1.6,2.9-4,4.7-7.3s2.9-5.7,3.4-7.4h3.2l-1.2,21.6H78.5v-3.8c0.8-0.1,1.9-0.2,3.3-0.4c1.4-0.2,2.4-0.4,2.9-0.7
			c1.1-0.5,1.8-1.2,2.2-2c0.4-0.8,0.6-1.8,0.6-3.1V63.2c0-1.2-0.2-2.1-0.5-2.9c-0.3-0.8-1.1-1.5-2.3-2.1c-0.7-0.4-1.8-0.7-3.2-1.1
			c-1.4-0.3-2.4-0.5-3.1-0.6v-3.8h54.3v17.7C132.7,70.4,132.8,70.4,132.8,70.4z"/>
		<path class="st1" d="M209.6,122.1h-33.4v-3.8c1.6-0.1,3.4-0.4,5.5-1c2.1-0.5,3.1-1.1,3.1-1.9c0-0.3,0-0.6-0.1-0.9
			c0-0.3-0.2-0.8-0.4-1.3l-5.2-14.4H158c-0.5,1.3-1,2.9-1.6,4.7c-0.6,1.8-1.1,3.4-1.5,4.8c-0.5,1.8-0.9,3.1-1,4
			c-0.1,0.8-0.2,1.4-0.2,1.7c0,1,0.7,1.9,2.1,2.7c1.4,0.7,3.7,1.3,7,1.6v3.8h-25.1v-3.8c0.9-0.1,2-0.2,3.2-0.5s2.1-0.7,2.8-1.1
			c1.2-0.8,2.2-1.7,3-2.9c0.8-1.1,1.5-2.5,2.1-4.1c3.3-9.2,6.7-18.3,10-27.5c3.4-9.2,7.1-19.3,11.1-30.4h8.6
			c5.6,15.7,10.1,28.1,13.3,37.3c3.2,9.1,5.9,16.7,8.2,22.7c0.4,1,0.8,1.9,1.4,2.7c0.6,0.8,1.4,1.6,2.5,2.3c0.8,0.5,1.7,0.9,2.8,1.2
			c1.1,0.3,2,0.4,2.9,0.5V122.1L209.6,122.1z M177.4,94l-8.9-25.1L159.8,94H177.4z"/>
		<path class="st1" d="M236.8,124c-3.7,0-7.2-0.5-10.5-1.6c-3.2-1.1-6-2.3-8.2-3.7l-3,3.4h-3.7L210.9,97h3.7
			c0.8,2.4,1.9,4.9,3.2,7.5s2.8,5,4.5,7.1c1.8,2.2,3.7,4,5.9,5.3c2.2,1.4,4.7,2.1,7.6,2.1c3.9,0,6.9-1.1,9-3.3
			c2.1-2.2,3.1-4.9,3.1-8.2c0-2.7-0.9-5-2.7-6.8s-4.5-3.4-8.2-4.8c-2.4-0.9-4.6-1.7-6.7-2.5c-2-0.8-3.9-1.5-5.7-2.3
			c-4.1-1.9-7.2-4.5-9.2-8s-3-7.3-3-11.6c0-2.7,0.5-5.3,1.6-7.8c1-2.5,2.5-4.7,4.5-6.7c1.9-1.9,4.3-3.4,7.3-4.6
			c3-1.2,6.2-1.8,9.7-1.8c3.4,0,6.6,0.5,9.5,1.6c3,1.1,5.3,2.2,7,3.2l2.6-2.9h3.8l0.3,23.7H255c-0.9-2.5-1.9-5.2-3-7.8
			s-2.4-4.9-3.7-6.6c-1.4-1.9-3-3.4-4.9-4.5c-1.8-1.1-4-1.7-6.5-1.7c-3.1,0-5.6,1-7.6,3s-3,4.5-3,7.4c0,2.8,0.9,5,2.6,6.8
			s4.4,3.3,8,4.7c2.1,0.8,4.3,1.6,6.5,2.4s4.2,1.6,5.9,2.3c4.2,1.8,7.3,4.4,9.5,7.6s3.3,7.2,3.3,12c0,3-0.6,5.9-1.9,8.7
			c-1.2,2.8-2.9,5.1-5,7c-2.3,2.1-5,3.6-8,4.7S240.8,124,236.8,124z"/>
		<path class="st1" d="M333.9,56.5c-1,0.1-2,0.3-2.8,0.6c-0.9,0.3-1.7,0.7-2.5,1.2c-1.2,0.8-2.3,1.8-3.3,3s-1.9,2.6-2.8,4.1
			c-1.9,3.1-3.8,6.5-5.9,10.1s-4.3,7.6-6.7,12c-1.6,2.8-2.6,4.9-2.9,6.4c-0.4,1.5-0.5,4.1-0.5,7.7v9.8c0,1.2,0.2,2.2,0.6,3.1
			s1.1,1.6,2.2,2.2c0.5,0.2,1.5,0.5,3.1,0.9s2.7,0.6,3.5,0.7v3.8h-34.1v-3.8c0.8-0.1,2-0.2,3.5-0.4s2.6-0.4,3.2-0.7
			c1.1-0.5,1.8-1.2,2.2-2.1c0.4-0.9,0.6-1.9,0.6-3.2V99.7c0-1.1,0-2,0-2.8s-0.1-1.5-0.3-2.1c-0.2-0.6-0.5-1.4-1-2.4
			s-1.1-2.2-1.9-3.7c-2.2-4.4-4.4-8.6-6.4-12.5c-2.1-3.9-4-7.6-5.9-11.1c-1-1.8-2-3.2-3-4.3s-2-2-3-2.7c-0.8-0.5-1.7-0.9-2.8-1.1
			c-1.1-0.3-2.1-0.4-3-0.5v-3.8h35.1v3.8c-3.2,0.1-5.4,0.4-6.5,0.8c-1.1,0.4-1.7,1-1.7,1.7c0,0.4,0.2,1.1,0.6,2.2
			c0.4,1.1,1.2,2.7,2.2,5c1,2.1,2.4,5,4.3,8.7s4.1,8.1,6.8,13c5.5-9.8,9.2-16.6,11.2-20.5s3.1-6.3,3.1-7.2c0-1.1-0.6-2-1.8-2.5
			c-1.2-0.6-3.1-1-5.8-1.1v-3.8h22.7v3.7C334.2,56.5,333.9,56.5,333.9,56.5z"/>
	</g>
	<ellipse class="st2" cx="202.1" cy="87" rx="176.4" ry="70.1"/>
</g>
</svg>
