<?xml version="1.0" encoding="utf-8"?>
<!-- Generator: Adobe Illustrator 26.4.1, SVG Export Plug-In . SVG Version: 6.00 Build 0)  -->
<svg version="1.1" id="圖層_1" xmlns="http://www.w3.org/2000/svg" xmlns:xlink="http://www.w3.org/1999/xlink" x="0px" y="0px"
	 viewBox="0 0 396.2 193.6" style="enable-background:new 0 0 396.2 193.6;" xml:space="preserve">
<style type="text/css">
	.st0{enable-background:new    ;}
	.st1{fill:#79DA08;}
	.st2{fill:none;stroke:#79DA08;stroke-width:12;}
</style>
<g class="st0">
	<path class="st1" d="M128.9,80.2h-3.3c-0.8-2.6-2.3-5.3-4.3-8s-4.1-4.3-6.1-4.8c-0.9-0.2-2.1-0.4-3.6-0.4s-2.8-0.1-3.8-0.1h-8.9
		v26.7h6.3c1.6,0,3-0.2,4.3-0.6s2.5-1.2,3.5-2.4c0.7-0.7,1.3-2.1,2-4s1.1-3.5,1.3-4.9h3.3v28.9h-3.3c-0.2-1.4-0.6-3.1-1.3-5.2
		c-0.7-2.1-1.4-3.5-2-4.3c-0.9-1.2-2.1-2-3.4-2.4s-2.8-0.7-4.5-0.7h-6.3v20c0,2.1,0.1,3.7,0.4,5c0.3,1.2,0.8,2.2,1.5,2.8
		c0.7,0.6,1.7,1,3,1.2s3,0.3,5.1,0.3c1,0,2.2,0,3.6,0s2.6-0.1,3.7-0.3c1.2-0.2,2.3-0.4,3.4-0.7c1-0.3,1.8-0.8,2.4-1.4
		c1.4-1.6,2.9-4,4.7-7.3s2.9-5.7,3.4-7.4h3.2l-1.2,21.6H74.6V128c0.8-0.1,1.9-0.2,3.3-0.4c1.4-0.2,2.4-0.4,2.9-0.7
		c1.1-0.5,1.8-1.2,2.2-2c0.4-0.8,0.6-1.8,0.6-3.1V73.1c0-1.2-0.2-2.1-0.5-2.9s-1.1-1.5-2.3-2.1C80,67.7,79,67.3,77.6,67
		s-2.4-0.5-3.1-0.6v-3.8h54.3L128.9,80.2L128.9,80.2z"/>
	<path class="st1" d="M205.7,131.9h-33.4v-3.8c1.6-0.1,3.4-0.4,5.5-1c2.1-0.5,3.1-1.1,3.1-1.9c0-0.3,0-0.6-0.1-0.9
		c0-0.3-0.2-0.8-0.4-1.3l-5.2-14.4h-21.1c-0.5,1.3-1,2.9-1.6,4.7s-1.1,3.4-1.5,4.8c-0.5,1.8-0.9,3.1-1,4c-0.1,0.8-0.2,1.4-0.2,1.7
		c0,1,0.7,1.9,2.1,2.7c1.4,0.7,3.7,1.3,7,1.6v3.8h-25.1v-3.8c0.9-0.1,2-0.2,3.2-0.5s2.1-0.7,2.8-1.1c1.2-0.8,2.2-1.7,3-2.9
		c0.8-1.1,1.5-2.5,2.1-4.1c3.3-9.2,6.7-18.3,10-27.5c3.4-9.2,7.1-19.3,11.1-30.4h8.6c5.6,15.7,10.1,28.1,13.3,37.3
		c3.2,9.1,5.9,16.7,8.2,22.7c0.4,1,0.8,1.9,1.4,2.7c0.6,0.8,1.4,1.6,2.5,2.3c0.8,0.5,1.7,0.9,2.8,1.2c1.1,0.3,2,0.4,2.9,0.5V131.9z
		 M173.5,103.9l-8.9-25.1l-8.7,25.1H173.5z"/>
	<path class="st1" d="M232.8,133.8c-3.7,0-7.2-0.5-10.5-1.6s-6-2.3-8.2-3.7l-3,3.4h-3.7l-0.6-25.1h3.7c0.8,2.4,1.9,4.9,3.2,7.5
		s2.8,5,4.5,7.1c1.8,2.2,3.7,4,5.9,5.3c2.2,1.4,4.7,2.1,7.6,2.1c3.9,0,6.9-1.1,9-3.3c2.1-2.2,3.1-4.9,3.1-8.2c0-2.7-0.9-5-2.7-6.8
		s-4.5-3.4-8.2-4.8c-2.4-0.9-4.6-1.7-6.7-2.5c-2-0.8-3.9-1.5-5.7-2.3c-4.1-1.9-7.2-4.5-9.2-8s-3-7.3-3-11.6c0-2.7,0.5-5.3,1.6-7.8
		c1-2.5,2.5-4.7,4.5-6.7c1.9-1.9,4.3-3.4,7.3-4.6s6.2-1.8,9.7-1.8c3.4,0,6.6,0.5,9.5,1.6s5.3,2.2,7,3.2l2.6-2.9h3.8l0.3,23.7h-3.7
		c-0.9-2.5-1.9-5.2-3-7.8s-2.4-4.9-3.7-6.6c-1.4-1.9-3-3.4-4.9-4.5c-1.8-1.1-4-1.7-6.5-1.7c-3.1,0-5.6,1-7.6,3s-3,4.5-3,7.4
		c0,2.8,0.9,5,2.6,6.8s4.4,3.3,8,4.7c2.1,0.8,4.3,1.6,6.5,2.4s4.2,1.6,5.9,2.3c4.2,1.8,7.3,4.4,9.5,7.6c2.2,3.2,3.3,7.2,3.3,12
		c0,3-0.6,5.9-1.9,8.7s-2.9,5.1-5,7c-2.3,2.1-5,3.6-8,4.7S236.8,133.8,232.8,133.8z"/>
	<path class="st1" d="M330,66.4c-1,0.1-2,0.3-2.8,0.6c-0.9,0.3-1.7,0.7-2.5,1.2c-1.2,0.8-2.3,1.8-3.3,3s-1.9,2.6-2.8,4.1
		c-1.9,3.1-3.8,6.5-5.9,10.1s-4.3,7.6-6.7,12c-1.6,2.8-2.6,4.9-2.9,6.4c-0.4,1.5-0.5,4.1-0.5,7.7v9.8c0,1.2,0.2,2.2,0.6,3.1
		s1.1,1.6,2.2,2.2c0.5,0.2,1.5,0.5,3.1,0.9s2.7,0.6,3.5,0.7v3.8h-34.1v-3.8c0.8-0.1,2-0.2,3.5-0.4c1.5-0.2,2.6-0.4,3.2-0.7
		c1.1-0.5,1.8-1.2,2.2-2.1c0.4-0.9,0.6-1.9,0.6-3.2v-12.2c0-1.1,0-2,0-2.8s-0.1-1.5-0.3-2.1c-0.2-0.6-0.5-1.4-1-2.4
		s-1.1-2.2-1.9-3.7c-2.2-4.4-4.4-8.6-6.4-12.5c-2.1-3.9-4-7.6-5.9-11.1c-1-1.8-2-3.2-3-4.3c-1-1.1-2-2-3-2.7
		c-0.8-0.5-1.7-0.9-2.8-1.1c-1.1-0.3-2.1-0.4-3-0.5v-3.8h35.1v3.8c-3.2,0.1-5.4,0.4-6.5,0.8s-1.7,1-1.7,1.7c0,0.4,0.2,1.1,0.6,2.2
		s1.2,2.7,2.2,5c1,2.1,2.4,5,4.3,8.7s4.1,8.1,6.8,13c5.5-9.8,9.2-16.6,11.2-20.5s3.1-6.3,3.1-7.2c0-1.1-0.6-2-1.8-2.5
		c-1.2-0.6-3.1-1-5.8-1.1v-3.8H330V66.4z"/>
</g>
<ellipse class="st2" cx="198.1" cy="96.8" rx="176.4" ry="70.1"/>
</svg>
